<svg width="64" height="64" viewBox="0 0 64 64" fill="none" xmlns="http://www.w3.org/2000/svg">
<rect width="64" height="64" rx="10" fill="white"/>
<path d="M51.5153 32.9543L43.2439 39.3836C37.0404 44.2055 26.9596 44.2055 20.7561 39.3836L12.4847 32.9543C11.8384 32.4521 11.8384 31.6484 12.4847 31.0457L20.7561 24.6164C26.9596 19.7945 37.0404 19.7945 43.2439 24.6164L51.5153 31.0457C52.1616 31.6484 52.1616 32.4521 51.5153 32.9543Z" fill="#36807F"/>
<path d="M33.5577 30.6504C32.6886 29.4984 32.7852 27.9624 33.5577 26.9064C33.7509 26.6184 33.5577 26.1385 33.268 26.1385C31.0469 25.6585 28.6326 26.4265 27.1841 28.4424C25.5424 30.5544 25.6389 33.6263 27.2806 35.7383C29.5983 38.6182 33.7509 38.7142 36.2617 36.2182C37.324 35.1623 37.9034 33.8183 38 32.4743C38 32.0903 37.7103 31.8023 37.324 31.8983C35.972 32.2823 34.4269 31.8023 33.5577 30.6504Z" fill="white"/>
</svg>
