<svg width="168" height="167" viewBox="0 0 168 167" fill="none" xmlns="http://www.w3.org/2000/svg">
<path d="M168 167C154.868 167 141.864 164.413 129.732 159.388C117.599 154.362 106.575 146.997 97.2893 137.711C88.0035 128.425 80.6375 117.401 75.6121 105.268C70.5866 93.1358 68 80.1322 68 67L168 67L168 167Z" fill="white"/>
<path d="M68 0C59.0701 1.17101e-06 50.2277 1.73301 41.9775 5.10007C33.7274 8.46714 26.2311 13.4023 19.9167 19.6239C13.6023 25.8454 8.5935 33.2314 5.17619 41.3602C1.75887 49.489 -1.54413e-06 58.2014 0 67L68 67L68 0Z" fill="#223645"/>
<circle cx="30" cy="137" r="30" transform="rotate(90 30 137)" fill="#E61F57"/>
</svg>
