<svg width="108" height="107" viewBox="0 0 108 107" fill="none" xmlns="http://www.w3.org/2000/svg">
<path d="M64 107C55.5954 107 47.2731 105.345 39.5083 102.128C31.7434 98.912 24.6881 94.1978 18.7452 88.2548C12.8022 82.3119 8.08801 75.2566 4.8717 67.4917C1.6554 59.7269 -6.52726e-06 51.4046 -7.62939e-06 43L64 43L64 107Z" fill="white"/>
<path d="M64 43C69.7782 43 75.4997 41.8878 80.8381 39.7268C86.1764 37.5659 91.0269 34.3985 95.1127 30.4056C99.1985 26.4127 102.439 21.6724 104.651 16.4554C106.862 11.2384 108 5.64684 108 -5.7699e-06L64 3.28064e-06L64 43Z" fill="#223645"/>
<ellipse cx="31.5" cy="19" rx="19" ry="19.5" transform="rotate(90 31.5 19)" fill="white"/>
</svg>
