<svg width="77" height="76" viewBox="0 0 77 76" fill="none" xmlns="http://www.w3.org/2000/svg">
<path d="M77 31C77 36.9095 75.8102 42.7611 73.4985 48.2207C71.1867 53.6804 67.7984 58.6412 63.5269 62.8198C59.2554 66.9984 54.1844 70.3131 48.6034 72.5746C43.0225 74.836 37.0408 76 31 76L31 31L77 31Z" fill="white"/>
<path d="M31 31C31 26.929 30.1982 22.8979 28.6403 19.1368C27.0824 15.3757 24.7989 11.9583 21.9203 9.07969C19.0417 6.20108 15.6243 3.91763 11.8632 2.35974C8.10209 0.801842 4.07097 4.83231e-06 -5.42021e-06 5.72205e-06L2.36511e-06 31L31 31Z" fill="#36807F"/>
<ellipse cx="16" cy="54" rx="10" ry="10" fill="#E61F57"/>
</svg>
