<svg width="95" height="95" viewBox="0 0 95 95" fill="none" xmlns="http://www.w3.org/2000/svg">
<path fill-rule="evenodd" clip-rule="evenodd" d="M3.13569 63.7809C2.93876 63.2546 2.75157 62.7256 2.57412 62.194L62.1939 2.57417C62.7255 2.75163 63.2546 2.93882 63.7808 3.13574L3.13569 63.7809ZM5.33066 68.7474C5.08589 68.2706 4.84979 67.7905 4.62237 67.3073L67.3072 4.62243C67.7904 4.84986 68.2705 5.08595 68.7474 5.33072L5.33066 68.7474ZM7.9775 73.2621C7.69 72.8292 7.4104 72.3926 7.13873 71.9524L71.9524 7.13879C72.3925 7.41047 72.8291 7.69006 73.2621 7.97757L7.9775 73.2621ZM11.0366 77.3646C10.7095 76.9722 10.3897 76.5758 10.0772 76.1755L76.1754 10.0773C76.5757 10.3897 76.9722 10.7095 77.3645 11.0367L11.0366 77.3646ZM14.4844 81.0783C14.3029 80.9024 14.1224 80.7248 13.943 80.5455C13.7637 80.3661 13.586 80.1856 13.4102 80.0041L80.004 13.4102C80.1856 13.5861 80.366 13.7637 80.5454 13.9431C80.7248 14.1225 80.9024 14.3029 81.0783 14.4845L14.4844 81.0783ZM18.313 84.4112C17.9127 84.0988 17.5163 83.779 17.1239 83.4519L83.4518 17.124C83.779 17.5163 84.0988 17.9128 84.4112 18.3131L18.313 84.4112ZM22.5361 87.3498C22.0959 87.0781 21.6593 86.7985 21.2264 86.511L86.5109 21.2264C86.7984 21.6593 87.078 22.096 87.3497 22.5361L22.5361 87.3498ZM27.1812 89.8661C26.698 89.6387 26.2179 89.4026 25.7411 89.1578L89.1578 25.7411C89.4025 26.218 89.6386 26.6981 89.8661 27.1813L27.1812 89.8661ZM32.2945 91.9144C31.7629 91.7369 31.2339 91.5497 30.7076 91.3528L91.3527 30.7077C91.5497 31.2339 91.7369 31.763 91.9143 32.2946L32.2945 91.9144ZM37.9519 93.4186C37.3631 93.3006 36.7761 93.1714 36.1912 93.0308L93.0307 36.1913C93.1713 36.7761 93.3006 37.3631 93.4185 37.9519L37.9519 93.4186ZM44.6233 94.2667C43.9574 94.2298 43.292 94.1789 42.6278 94.1138L94.1138 42.6278C94.1788 43.2921 94.2298 43.9574 94.2667 44.6234L44.6233 94.2667ZM51.9462 94.1054C51.1733 94.1825 50.3989 94.2405 49.6237 94.2795L94.2794 49.6237C94.2404 50.399 94.1824 51.1734 94.1053 51.9463L51.9462 94.1054ZM60.8822 92.331C59.9126 92.6233 58.9355 92.8838 57.9524 93.1123L93.1122 57.9525C92.8837 58.9355 92.6233 59.9127 92.3309 60.8822L60.8822 92.331ZM75.2866 85.0881C73.4059 86.4853 71.4448 87.7243 69.4213 88.8049L88.8049 69.4214C87.7242 71.4448 86.4853 73.406 85.0881 75.2866L75.2866 85.0881ZM58.2972 1.45779L1.45773 58.2973C1.31714 57.7124 1.18787 57.1254 1.06994 56.5366L56.5365 1.07C57.1254 1.18793 57.7124 1.3172 58.2972 1.45779ZM49.8651 0.221833C50.5311 0.258726 51.1964 0.309692 51.8607 0.374731L0.374671 51.8607C0.309635 51.1965 0.258663 50.5311 0.221774 49.8652L49.8651 0.221833ZM42.5422 0.383191C43.3151 0.306093 44.0895 0.248055 44.8648 0.209078L0.209016 44.8648C0.247988 44.0896 0.30603 43.3152 0.38313 42.5423L42.5422 0.383191ZM33.6063 2.15758C34.5758 1.86522 35.553 1.60479 36.536 1.37627L1.3762 36.5361C1.60472 35.553 1.86516 34.5759 2.15752 33.6063L33.6063 2.15758ZM19.2019 9.40043C21.0825 8.00323 23.0437 6.7643 25.0671 5.68363L5.68357 25.0672C6.76424 23.0437 8.00317 21.0826 9.40037 19.2019L19.2019 9.40043Z" fill="#E61F57"/>
</svg>
